<svg width="100" height="100" viewBox="0 0 100 100" xmlns="http://www.w3.org/2000/svg">
  <defs>
    <pattern id="seigaiha" x="0" y="0" width="100" height="100" patternUnits="userSpaceOnUse">
      <path fill="none" stroke="#0D5661" stroke-width="0.5" opacity="0.1" d="M0,50 a25,25 0 0,1 50,0 a25,25 0 0,1 50,0 M-50,50 a25,25 0 0,1 50,0 M100,50 a25,25 0 0,1 50,0 M0,0 a25,25 0 0,1 50,0 a25,25 0 0,1 50,0 M-50,0 a25,25 0 0,1 50,0 M100,0 a25,25 0 0,1 50,0 M0,100 a25,25 0 0,1 50,0 a25,25 0 0,1 50,0 M-50,100 a25,25 0 0,1 50,0 M100,100 a25,25 0 0,1 50,0"/>
    </pattern>
  </defs>
  <rect x="0" y="0" width="100" height="100" fill="url(#seigaiha)"/>
</svg>

